<svg xmlns="http://www.w3.org/2000/svg" width="2217.137" height="1550.815" viewBox="0 0 2217.137 1550.815"><path d="M2210.363 609.545c-.12-5.773-.226-11.547-.333-17.32-.16-9.72-.32-19.44-.427-29.132-.067-6.12-.08-12.2-.12-18.293-.067-9.453-.146-18.92-.12-28.32 5.08-17.92 7.774-36.145 7.774-54.638 0-46.399-16.507-91.185-47.066-133.437-.04-.067-.093-.133-.133-.187a335 335 0 0 0-6.36-8.48c-.12-.146-.227-.293-.347-.453-11.32-14.546-24.332-28.772-38.932-42.652-.147-.147-.293-.28-.427-.413a478 478 0 0 0-8.84-8.16c-.04-.04-.08-.067-.106-.107-12.253-11.013-25.506-21.786-39.72-32.306-.132-.093-.266-.2-.4-.293-3.386-2.506-6.826-5-10.319-7.466-.373-.254-.733-.507-1.093-.76a669 669 0 0 0-28.12-18.773 776 776 0 0 0-30.185-18.16c-.667-.386-1.347-.773-2.027-1.16-3.787-2.146-7.6-4.28-11.466-6.4-.667-.36-1.334-.72-1.987-1.08-16.573-9.026-33.92-17.786-52.012-26.266-1.053-.506-2.107-1-3.16-1.493a965 965 0 0 0-11.84-5.413c-1.32-.6-2.64-1.187-3.96-1.773-4.013-1.787-8.026-3.56-12.106-5.32-.987-.427-1.987-.854-2.987-1.28-13.32-5.707-26.999-11.28-41.025-16.706-1.44-.547-2.867-1.12-4.307-1.667-3.946-1.507-7.92-3-11.906-4.48a778 778 0 0 0-5.933-2.187 1208 1208 0 0 0-11.76-4.253 415 415 0 0 0-6.133-2.16c-4.027-1.413-8.053-2.826-12.12-4.213-1.507-.52-3.04-1.027-4.56-1.533a1540 1540 0 0 0-25.092-8.227c-1.907-.6-3.814-1.226-5.734-1.826-3.84-1.214-7.733-2.4-11.626-3.587-2.64-.8-5.28-1.613-7.947-2.413-3.76-1.12-7.533-2.24-11.32-3.347-2.852-.826-5.72-1.653-8.586-2.48-3.733-1.066-7.48-2.133-11.253-3.186-3.04-.84-6.093-1.68-9.16-2.507-3.666-1-7.333-2.013-11.026-3a2137 2137 0 0 0-18.8-4.893c-3.453-.88-6.933-1.72-10.412-2.587-3.534-.866-7.054-1.746-10.614-2.613s-7.16-1.707-10.746-2.56c-3.56-.826-7.133-1.666-10.706-2.493a2501 2501 0 0 0-10.667-2.413q-5.72-1.28-11.48-2.52c-3.4-.747-6.786-1.494-10.2-2.214-4.946-1.053-9.919-2.066-14.906-3.08-4.04-.826-8.08-1.64-12.146-2.44a2431 2431 0 0 0-15.986-3.12c-3.187-.6-6.4-1.186-9.6-1.773-4.386-.813-8.786-1.626-13.2-2.413-3.333-.587-6.68-1.173-10.026-1.76-4.427-.76-8.866-1.52-13.32-2.266-3.253-.547-6.493-1.094-9.76-1.614a2303 2303 0 0 0-15.292-2.426c-2.64-.414-5.267-.827-7.92-1.24a2285 2285 0 0 0-22.813-3.347c-2.467-.347-4.973-.68-7.453-1.027a3053 3053 0 0 0-16.426-2.213c-3.094-.413-6.2-.8-9.307-1.2-4.986-.626-10-1.253-15.026-1.853-3.187-.387-6.373-.773-9.573-1.147-5.253-.613-10.533-1.2-15.826-1.786-2.867-.307-5.72-.627-8.587-.934-7.56-.8-15.16-1.573-22.773-2.32l-2.866-.28c-7.747-.733-15.547-1.44-23.373-2.12l-8.36-.68c-5.6-.466-11.2-.92-16.813-1.346-3.146-.24-6.293-.467-9.453-.707a5982 5982 0 0 0-16.44-1.133c-3.04-.2-6.066-.4-9.106-.587-6.32-.4-12.68-.76-19.04-1.106-2.16-.12-4.306-.254-6.466-.374-8.48-.44-16.973-.84-25.506-1.213-2.12-.093-4.253-.16-6.386-.24-6.48-.267-12.987-.507-19.507-.733-3.026-.094-6.08-.174-9.12-.267-5.746-.173-11.506-.333-17.279-.453-3.146-.08-6.306-.147-9.466-.214-6.027-.12-12.067-.2-18.12-.28-2.76-.04-5.506-.08-8.266-.106-8.76-.094-17.547-.147-26.36-.147-8.733 0-17.453.053-26.146.147-2.68.026-5.36.066-8.053.093-6.093.08-12.173.173-18.24.293-3 .054-6 .12-8.986.187-6.133.133-12.24.307-18.333.48-2.572.08-5.142.147-7.704.227-8.537.28-17.054.586-25.535.946-.903.04-1.797.094-2.698.12-7.606.334-15.187.694-22.747 1.094-2.753.133-5.497.293-8.243.453-5.815.32-11.613.653-17.397 1.013-2.936.174-5.873.36-8.801.547-5.999.4-11.976.813-17.941 1.24-2.422.173-4.85.346-7.267.52-8.244.626-16.46 1.28-24.638 1.973-1.494.12-2.976.267-4.468.4-6.73.573-13.44 1.187-20.123 1.827-2.823.266-5.635.546-8.448.826-5.465.534-10.913 1.08-16.345 1.654a2296.871 2296.871 0 0 0-25.99 2.88c-2.327.266-4.666.52-6.985.8-7.884.946-15.733 1.906-23.542 2.92-1.904.253-3.79.506-5.69.76-6.007.786-11.996 1.6-17.959 2.426-2.841.4-5.67.8-8.502 1.213a2556 2556 0 0 0-15.263 2.24c-2.894.427-5.787.867-8.67 1.307-5.481.853-10.936 1.72-16.376 2.6-2.256.36-4.528.72-6.777 1.093a2135 2135 0 0 0-22.193 3.773c-2.353.414-4.682.84-7.027 1.267-5.186.92-10.358 1.867-15.501 2.827-2.946.546-5.878 1.106-8.81 1.666q-6.923 1.32-13.791 2.68c-2.936.587-5.875 1.16-8.796 1.747-5.01 1.013-9.984 2.053-14.95 3.106-2.33.48-4.675.96-6.995 1.454-6.932 1.493-13.817 3-20.663 4.546-2.63.587-5.235 1.2-7.852 1.8-4.485 1.04-8.96 2.08-13.408 3.133-3.014.707-6.014 1.44-9.01 2.16-4.108 1-8.195 2-12.268 3.027-2.961.733-5.925 1.467-8.868 2.227a1796 1796 0 0 0-13.578 3.533c-2.328.613-4.677 1.213-6.993 1.827a1722 1722 0 0 0-19.038 5.226c-2.858.8-5.684 1.613-8.524 2.427a1353 1353 0 0 0-20.49 5.986q-5.354 1.62-10.661 3.24c-2.99.92-5.985 1.84-8.95 2.773-3.974 1.24-7.907 2.507-11.838 3.774q-5.775 1.86-11.489 3.76a1487 1487 0 0 0-13.08 4.386c-2.963 1.013-5.891 2.04-8.829 3.067a964 964 0 0 0-9.535 3.36 1389 1389 0 0 0-18.172 6.64c-2.974 1.106-5.953 2.213-8.897 3.333-3.29 1.253-6.539 2.533-9.792 3.8q-7.108 2.78-14.095 5.6c-3.063 1.24-6.135 2.48-9.163 3.733-2.97 1.226-5.898 2.466-8.833 3.706-2.65 1.12-5.292 2.254-7.913 3.373-2.964 1.28-5.913 2.574-8.844 3.867-2.546 1.133-5.065 2.267-7.584 3.4-2.91 1.307-5.828 2.613-8.7 3.947-2.515 1.16-4.986 2.333-7.471 3.506a1072 1072 0 0 0-15.263 7.333c-2.27 1.12-4.554 2.227-6.8 3.36-2.867 1.427-5.695 2.88-8.523 4.333-2.176 1.12-4.347 2.24-6.499 3.36a924 924 0 0 0-8.371 4.427c-2.082 1.12-4.14 2.253-6.196 3.373-2.776 1.52-5.56 3.027-8.293 4.56-1.644.92-3.25 1.853-4.878 2.787a825 825 0 0 0-15.771 9.213c-1.764 1.066-3.543 2.12-5.284 3.186a598 598 0 0 0-7.881 4.894 558 558 0 0 0-5.288 3.346 736 736 0 0 0-7.692 4.973c-1.652 1.094-3.277 2.187-4.908 3.28-2.57 1.72-5.149 3.44-7.664 5.187-.297.2-.582.413-.878.613a629 629 0 0 0-17.144 12.333c-1.41 1.04-2.83 2.08-4.22 3.133a570 570 0 0 0-6.925 5.36 400 400 0 0 0-4.332 3.413 518 518 0 0 0-6.661 5.387c-1.332 1.093-2.63 2.2-3.941 3.307-7.56 6.36-14.78 12.8-21.648 19.32-1.165 1.106-2.344 2.212-3.488 3.319a433 433 0 0 0-9.214 9.24c-1.841 1.893-3.67 3.8-5.453 5.706-1.044 1.12-2.05 2.254-3.075 3.374-3.57 3.92-6.966 7.88-10.297 11.853-.68.8-1.435 1.6-2.101 2.413.084-.053.173-.107.259-.173C21.067 359.11 0 409.443 0 461.842c0 17.253 2.348 34.279 6.776 51.052.288 166.862-5.401 336.831-2.797 495.96.729 44.493.237 85.305 7.337 124.051.002.013.004.013.006.04 0-.013 0-.013.002-.013 6.748 36.8 20.343 71.732 48.552 106.117 37.78 46.04 86.627 82.438 137.392 112.958 49.815 29.945 102.56 54.945 156.983 76.158h.001c24.458 9.533 49.252 18.293 74.293 26.359l.125.04c11.943 3.84 23.944 7.52 35.982 11.053 1.053.32 2.105.627 3.16.933 24.66 7.2 49.49 13.813 74.398 19.867.579.146 1.161.28 1.741.413 11.03 2.68 22.076 5.226 33.125 7.693 3.054.693 6.108 1.36 9.164 2.027a2138 2138 0 0 0 26.844 5.693c3.198.653 6.395 1.333 9.592 1.973a2360 2360 0 0 0 34.885 6.773c148.565 27.613 299.964 39.826 451.003 39.826 127.797 0 256.274-8.533 382.91-28.08 9.32-1.466 16.173-9.52 16.107-18.959l-1.64-258.927 496.4 139.877c1.587-.907 3.214-1.774 4.787-2.707l.08-.04v-.013a782 782 0 0 0 22.893-13.96c24.573-15.546 48.185-32.465 70.438-51.038a301 301 0 0 0 12.386-10.973l.067-.067c1.587-1.48 3.094-3.067 4.654-4.6 1.866-1.84 3.76-3.654 5.586-5.547 1.907-1.973 3.774-4 5.64-6.026a400 400 0 0 0 4.493-5c1.894-2.173 3.787-4.347 5.627-6.573 1.293-1.547 2.533-3.134 3.8-4.707 4.466-5.6 8.8-11.346 12.906-17.253l.32-.44c1.867-2.706 3.667-5.493 5.467-8.266.933-1.44 1.866-2.867 2.773-4.32a336 336 0 0 0 5.093-8.427c.827-1.4 1.627-2.826 2.427-4.253 1.68-2.986 3.36-5.973 4.96-9v-.027c23.692-45.172 37.052-96.05 36.305-146.516-.133-9.306-.213-18.626-.253-27.946-.227-56.265 1.16-112.784 1.973-169.102 1.094-74.825-1.68-154.85-3.666-235.048a9289 9289 0 0 1-.734-33.332" style="fill:#f8b123;fill-opacity:1;fill-rule:nonzero;stroke:none;stroke-width:.13333"/><path d="m1949.957 1210.05-.08.12a118 118 0 0 1-6.867 8.933c-.267.32-.547.64-.813.96a113 113 0 0 1-6.573 6.96 100.236 100.236 0 0 1-7.506 6.627 88 88 0 0 1-3.108 2.4c-1.173.866-2.333 1.732-3.533 2.532a96 96 0 0 1-5.773 3.547 87.033 87.033 0 0 1-9.693 4.76c-.773.307-1.547.613-2.333.907a81 81 0 0 1-7.68 2.52c-.56.16-1.133.28-1.707.426-2.826.693-5.68 1.28-8.573 1.667-.333.04-.667.067-1 .106-3.133.374-6.306.614-9.533.614-55.172 0-99.904-56.999-99.904-127.304 0-4.106.187-8.173.48-12.173.107-1.333.28-2.626.413-3.946.254-2.654.547-5.307.934-7.907.24-1.547.52-3.067.8-4.6.413-2.306.866-4.586 1.386-6.84.36-1.613.76-3.213 1.173-4.786a146 146 0 0 1 1.774-6.213c.506-1.614 1-3.227 1.546-4.813.667-1.92 1.4-3.774 2.134-5.64.626-1.614 1.24-3.24 1.92-4.814.72-1.64 1.52-3.2 2.293-4.8a132 132 0 0 1 5.906-10.946c.454-.746.867-1.533 1.334-2.28 1.266-2 2.626-3.893 3.986-5.8.587-.826 1.16-1.68 1.774-2.48 1.426-1.893 2.906-3.68 4.413-5.453.6-.706 1.186-1.4 1.786-2.08 1.614-1.8 3.267-3.533 4.974-5.2.506-.493 1.013-.973 1.533-1.466a107 107 0 0 1 5.706-5.04c.227-.187.467-.36.707-.547 9.16-7.306 19.28-12.773 30.106-16.013.013 0 .04-.013.067-.013 7.32-2.173 14.92-3.453 22.76-3.453 55.185 0 99.904 56.999 99.904 127.304 0 32.345-9.534 61.771-25.133 84.224m-204.089-500.788c1.6-1.866 3.454-3.4 5.427-4.72-.013-.013-.04-.013-.067-.013.893-.613 1.88-1.053 2.853-1.547a26.6 26.6 0 0 1 3.907-1.653c1.106-.386 2.213-.773 3.386-1.026.867-.187 1.774-.24 2.667-.36 1.093-.134 2.187-.267 3.307-.294.92-.026 1.826.04 2.746.08 1.16.067 2.32.174 3.48.347.893.147 1.773.307 2.667.507 1.24.28 2.466.64 3.693 1.053.827.28 1.64.533 2.453.866 1.347.547 2.667 1.227 3.987 1.934.666.36 1.346.653 2 1.053 1.946 1.187 3.853 2.52 5.653 4.067 15.453 13.2 18.946 34.479 7.786 47.532-1.453 1.706-3.106 3.16-4.88 4.413-.52.36-1.093.587-1.626.907-1.334.813-2.68 1.6-4.133 2.173-.64.253-1.307.387-1.96.587-1.454.466-2.92.893-4.454 1.133-.693.107-1.386.12-2.093.187-1.547.146-3.093.24-4.68.16-.253-.014-.493.053-.746.026.04-.026.067-.053.106-.08-8.12-.506-16.56-3.693-23.693-9.8-15.466-13.2-18.946-34.492-7.786-47.532m-68.532 352.178c-.106.147-.24.254-.346.4-.707.974-1.48 1.84-2.294 2.68-.346.374-.666.76-1.04 1.094-.84.786-1.76 1.426-2.68 2.053-.413.266-.786.586-1.213.826-.986.56-2.04.96-3.093 1.334-.413.146-.8.373-1.227.493-1.506.4-3.053.64-4.653.64-12.2 0-22.093-12.6-22.093-28.16 0-1.813.16-3.586.414-5.306.093-.573.24-1.106.346-1.68.227-1.12.48-2.213.8-3.28.2-.64.44-1.24.68-1.866.347-.907.707-1.8 1.134-2.667.293-.613.613-1.2.946-1.787a33 33 0 0 1 1.427-2.213c.4-.56.787-1.12 1.227-1.626.533-.64 1.106-1.214 1.68-1.774.48-.466.933-.973 1.44-1.386.666-.547 1.386-.987 2.093-1.454a22 22 0 0 1 2.733-1.466c.707-.307 1.4-.667 2.147-.88-.013.013-.027.04-.04.053 1.64-.494 3.32-.814 5.066-.814 12.213 0 22.106 12.6 22.106 28.146 0 7.2-2.186 13.68-5.666 18.667.04-.013.067-.013.106-.027m-40.105-262.487c-.84.693-1.68 1.373-2.6 1.933-.387.227-.787.387-1.187.587-.92.493-1.853.946-2.826 1.293-.414.147-.84.24-1.267.36-.987.28-1.973.52-2.987.667-.16.026-.306.08-.453.106.013-.026.04-.053.053-.08-5.106.627-10.426-.466-14.973-3.64-9.84-6.84-12.253-20.399-5.386-30.265.986-1.427 2.146-2.64 3.373-3.747h-.053c.573-.52 1.213-.947 1.84-1.4a20 20 0 0 1 2.346-1.48c.707-.387 1.4-.773 2.147-1.08.547-.227 1.107-.373 1.667-.547.693-.226 1.373-.44 2.08-.586.573-.12 1.146-.187 1.733-.267.72-.093 1.453-.16 2.187-.187.56-.013 1.12 0 1.693.027.773.04 1.533.133 2.306.253.52.08 1.04.16 1.56.28.854.2 1.694.48 2.52.787.427.16.854.28 1.267.467 1.24.546 2.453 1.2 3.6 2 9.84 6.853 12.253 20.413 5.373 30.279a21 21 0 0 1-3.027 3.467c-.306.293-.653.506-.986.773m-81.105-112.357q-1.34 1.92-2.84 3.64c-.28.333-.6.613-.893.933-.733.813-1.48 1.6-2.267 2.346-.333.307-.68.574-1.026.88-.8.694-1.614 1.387-2.454 2.027-.32.24-.64.453-.973.68a42 42 0 0 1-2.787 1.84c-.28.173-.56.32-.826.467-1.053.6-2.107 1.16-3.2 1.666-.2.094-.413.174-.627.267a42 42 0 0 1-3.613 1.427c-.12.04-.253.08-.387.133-1.32.427-2.666.8-4.026 1.12-.04 0-.093.013-.147.027a43 43 0 0 1-4.32.733h-.013c-10.066 1.2-20.586-1.093-29.56-7.347-19.492-13.573-24.265-40.425-10.652-59.985 1.933-2.773 4.16-5.226 6.573-7.4l.027-.026c3.6-3.24 7.667-5.8 12-7.64.053-.027.106-.04.16-.067a43 43 0 0 1 6.973-2.24c2.2-.506 4.413-.866 6.666-1.026h.16a41.6 41.6 0 0 1 6.694.066c.146.014.28.014.413.027 2.133.213 4.253.613 6.346 1.147.36.093.707.173 1.067.28a44 44 0 0 1 6 2.173c.32.147.64.32.96.467 2.013.986 4.013 2.08 5.92 3.4 19.493 13.573 24.266 40.439 10.653 59.985m-192.489-81.785c-.746 1.08-1.6 2.04-2.52 2.907-.266.253-.573.426-.853.666-.693.574-1.387 1.134-2.147 1.587-.333.2-.68.347-1.026.52-.76.4-1.52.773-2.32 1.053-.36.134-.734.2-1.093.307-.814.227-1.627.44-2.467.547-.133.026-.253.08-.387.093.013-.013.027-.04.053-.053-4.266.506-8.72-.4-12.533-3.054-8.213-5.72-10.226-17.053-4.493-25.306a18 18 0 0 1 2.827-3.12h-.053c.48-.426 1-.773 1.506-1.133.654-.48 1.32-.907 2.027-1.28.573-.32 1.146-.64 1.76-.893.466-.187.933-.32 1.413-.467.573-.173 1.133-.36 1.72-.48.48-.107.96-.16 1.453-.227.6-.08 1.2-.133 1.814-.146.48-.013.946-.013 1.426.013.64.027 1.28.107 1.92.213.44.067.88.134 1.32.227.707.173 1.4.413 2.093.667.36.133.72.226 1.067.386 1.027.467 2.04 1 3 1.667 8.226 5.733 10.24 17.066 4.493 25.306m532.614 304.86.12-1.054c.306-2.12.746-4.173 1.28-6.16.106-.347.2-.693.306-1.04a48 48 0 0 1 2.094-5.853c.053-.12.12-.24.173-.36a46.5 46.5 0 0 1 2.946-5.533c.027-.04.053-.094.08-.134a40.6 40.6 0 0 1 3.627-4.88l.32-.36a35 35 0 0 1 4.24-4.08c.04-.04.08-.066.12-.093 3.12-2.52 6.573-4.386 10.28-5.493h.013c2.48-.747 5.04-1.173 7.693-1.173 18.64 0 33.759 19.266 33.759 43.012 0 10.933-3.213 20.88-8.493 28.466q-1.14 1.64-2.4 3.12c-.04.04-.08.093-.12.133-.787.933-1.627 1.8-2.48 2.64-.093.08-.187.173-.28.253a34 34 0 0 1-2.507 2.147l-.48.36c-.8.6-1.626 1.147-2.466 1.667-.227.133-.454.28-.694.426-.786.454-1.6.854-2.413 1.227-.293.133-.586.28-.88.413-.786.32-1.6.6-2.4.854-.346.106-.68.24-1.026.333-.827.227-1.667.387-2.507.533-.333.054-.667.147-1.013.2q-1.78.24-3.6.24c-18.64 0-33.76-19.253-33.76-43.012 0-2.32.187-4.573.467-6.8m-91.584-246.914-658.464-185.555-79.344-22.36-10.44-2.946.547.547 15.72 15.386 9.559 9.373 421.31 412.723.026 3.533 1 158.543 1.227 192.808.133.04 496.401 139.877c1.587-.907 3.214-1.773 4.787-2.707l.08-.04v-.013l1.626-71.038 8.254-360.844c3.04-133.023-84.345-251.234-212.422-287.326" style="fill:#fcd575;fill-opacity:1;fill-rule:nonzero;stroke:none;stroke-width:.13333"/><path d="M354.251 1428.164h.001c24.457 9.533 49.256 18.293 74.293 26.36l.125.04c11.943 3.84 23.944 7.52 35.982 11.053 1.053.32 2.105.626 3.16.933 24.66 7.2 49.49 13.813 74.398 19.866.579.147 1.161.28 1.741.413 11.03 2.68 22.076 5.227 33.125 7.694 3.054.693 6.108 1.36 9.164 2.026a2138 2138 0 0 0 26.844 5.693c3.198.654 6.395 1.334 9.592 1.974a2360 2360 0 0 0 34.885 6.773c148.565 27.612 299.964 39.826 451.003 39.826 127.797 0 256.274-8.534 382.91-28.08 9.32-1.466 16.173-9.52 16.107-18.96l-.44-70.038c-379.95 72.465-774.08 71.692-1152.89-5.573" style="fill:#f19f18;fill-opacity:1;fill-rule:nonzero;stroke:none;stroke-width:.13333"/><path d="M1980.036 747.301c39.266 52.746 61.438 118.424 59.865 188.036l-9.8 432.669c24.573-15.547 48.186-32.466 70.438-51.039a292 292 0 0 0 12-10.64l.387-.333.067-.067v-.027c1.573-1.493 3.106-3.053 4.653-4.573 1.867-1.84 3.76-3.654 5.587-5.547 1.906-1.973 3.773-4 5.64-6.026a400 400 0 0 0 4.493-5c1.893-2.173 3.786-4.347 5.626-6.573 1.293-1.547 2.533-3.134 3.8-4.707 4.467-5.6 8.8-11.346 12.906-17.253l.32-.44c1.867-2.706 3.667-5.493 5.467-8.266.933-1.44 1.866-2.867 2.773-4.32a336 336 0 0 0 5.093-8.427c.827-1.4 1.627-2.826 2.427-4.253 1.68-2.986 3.36-5.973 4.96-9v-.027l-.72.334c-36.226 16.493-77.865-8.147-81.265-47.813-5.64-65.798-5.773-131.903 1.36-197.595 12.8-117.81 50.186-234.447 114.997-333.071 0-.16-.013-.307-.013-.467a9289 9289 0 0 1-1.066-50.652c-.16-9.72-.32-19.44-.427-29.133-.067-6.12-.08-12.2-.12-18.292-.067-9.453-.147-18.92-.12-28.32-24.48 86.531-106.317 165.743-229.328 230.821M1504.582 1052l-1-158.543c-122.717 19.506-255.847 30.212-395.017 30.212-570.816 0-1040.791-179.742-1101.788-410.776.288 166.862-5.402 336.831-2.798 495.96.73 44.48.238 85.305 7.337 124.05.003.014.004.014.007.04l.001-.012c14.515-18.932 729.47-196.381 1493.257-80.93M153.98 257.34a337 337 0 0 0-5.557 6.932c101.333-40.145 218.028-42.625 319.401-1.986 135.66 54.398 245.523 178.462 391.294 189.102 113.52 8.28 218.555-55.346 313.339-118.37 94.784-63.012 195.942-130.37 309.766-130.944 94.424-.48 182.115 45.465 264.993 90.718 82.878 45.265 169.716 92.224 264.127 94.077 25.012.48 50.625-3.373 74.971-11.053-93.398-144.436-338.871-266.526-655.637-322.458 336.845 47.638 599.039 162.582 694.396 306.379 16.466-8.627 31.72-19.107 45-31.333-.04-.067-.094-.133-.134-.187a335 335 0 0 0-6.36-8.48c-.12-.146-.227-.293-.347-.453-11.32-14.546-24.332-28.772-38.932-42.652-.147-.147-.293-.28-.427-.413a478 478 0 0 0-8.84-8.16c-.04-.04-.08-.067-.106-.107-12.253-11.013-25.506-21.786-39.72-32.306-.132-.093-.266-.2-.4-.293-3.386-2.506-6.826-5-10.319-7.466a77 77 0 0 1-1.093-.76 669 669 0 0 0-28.12-18.773 776 776 0 0 0-30.185-18.16 273 273 0 0 0-2.027-1.16c-3.787-2.146-7.6-4.28-11.466-6.4-.667-.36-1.334-.72-1.987-1.08-16.573-9.026-33.92-17.786-52.012-26.266-1.053-.506-2.107-1-3.16-1.493a965 965 0 0 0-11.84-5.413c-1.32-.6-2.64-1.187-3.96-1.773-4.013-1.787-8.026-3.56-12.106-5.32-.987-.427-1.987-.854-2.987-1.28-13.32-5.707-26.999-11.28-41.025-16.706-1.44-.547-2.867-1.12-4.307-1.667-3.946-1.507-7.92-3-11.906-4.48a778 778 0 0 0-5.933-2.187 1208 1208 0 0 0-11.76-4.253 415 415 0 0 0-6.133-2.16c-4.027-1.413-8.053-2.826-12.12-4.213-1.507-.52-3.04-1.027-4.56-1.533a1540 1540 0 0 0-25.092-8.227c-1.907-.6-3.814-1.226-5.734-1.826-3.84-1.214-7.733-2.4-11.626-3.587-2.64-.8-5.28-1.613-7.947-2.413-3.76-1.12-7.533-2.24-11.32-3.347-2.852-.826-5.72-1.653-8.586-2.48-3.733-1.066-7.48-2.133-11.253-3.186-3.04-.84-6.093-1.68-9.16-2.507-3.666-1-7.333-2.013-11.026-3a2137 2137 0 0 0-18.8-4.893c-3.453-.88-6.933-1.72-10.412-2.587-3.534-.866-7.054-1.746-10.614-2.613s-7.16-1.707-10.746-2.56c-3.56-.826-7.133-1.666-10.706-2.493a2501 2501 0 0 0-10.667-2.413q-5.72-1.28-11.48-2.52c-3.4-.747-6.786-1.494-10.2-2.214-4.946-1.053-9.919-2.066-14.906-3.08-4.04-.826-8.08-1.64-12.146-2.44a2431 2431 0 0 0-15.986-3.12c-3.187-.6-6.4-1.186-9.6-1.773-4.386-.813-8.786-1.626-13.2-2.413-3.333-.587-6.68-1.173-10.026-1.76-4.427-.76-8.866-1.52-13.32-2.266-3.253-.547-6.493-1.094-9.76-1.614a2303 2303 0 0 0-15.292-2.426c-2.64-.414-5.267-.827-7.92-1.24a2285 2285 0 0 0-22.813-3.347c-2.467-.347-4.973-.68-7.453-1.027a3053 3053 0 0 0-16.426-2.213c-3.094-.413-6.2-.8-9.307-1.2-4.986-.626-10-1.253-15.026-1.853-3.187-.387-6.373-.773-9.573-1.147-5.253-.613-10.533-1.2-15.826-1.786-2.867-.307-5.72-.627-8.587-.934-7.56-.8-15.16-1.573-22.773-2.32l-2.866-.28c-7.747-.733-15.547-1.44-23.373-2.12l-8.36-.68c-5.6-.466-11.2-.92-16.813-1.346-3.146-.24-6.293-.467-9.453-.707a5982 5982 0 0 0-16.44-1.133c-3.04-.2-6.066-.4-9.106-.587-6.32-.4-12.68-.76-19.04-1.106-2.16-.12-4.306-.254-6.466-.374-8.48-.44-16.973-.84-25.506-1.213-2.12-.093-4.253-.16-6.386-.24-6.48-.267-12.987-.507-19.507-.733-3.026-.094-6.08-.174-9.12-.267-5.746-.173-11.506-.333-17.279-.453-3.146-.08-6.306-.147-9.466-.214-6.027-.12-12.067-.2-18.12-.28-2.76-.04-5.506-.08-8.266-.106-8.76-.094-17.547-.147-26.36-.147-8.733 0-17.453.053-26.146.147-2.68.026-5.36.066-8.053.093-6.093.08-12.173.173-18.24.293-3 .054-6 .12-8.986.187-6.133.133-12.24.307-18.333.48-2.572.08-5.142.147-7.704.227-8.537.28-17.054.586-25.535.946-.903.04-1.797.094-2.698.12-7.606.334-15.187.694-22.747 1.094-2.753.133-5.497.293-8.243.453-5.815.32-11.613.653-17.397 1.013-2.936.174-5.873.36-8.801.547-5.999.4-11.976.813-17.941 1.24-2.422.173-4.85.346-7.267.52-8.244.626-16.46 1.28-24.638 1.973-1.494.12-2.976.267-4.468.4-6.73.573-13.44 1.187-20.123 1.827-2.823.266-5.635.546-8.448.826-5.465.534-10.913 1.08-16.345 1.654a2296.871 2296.871 0 0 0-25.99 2.88c-2.327.266-4.666.52-6.985.8-7.884.946-15.733 1.906-23.542 2.92-1.904.253-3.79.506-5.69.76-6.007.786-11.996 1.6-17.959 2.426-2.841.4-5.67.8-8.502 1.213a2556 2556 0 0 0-15.263 2.24c-2.894.427-5.787.867-8.67 1.307-5.481.853-10.936 1.72-16.376 2.6-2.256.36-4.528.72-6.777 1.093a2135 2135 0 0 0-22.193 3.773c-2.353.414-4.682.84-7.027 1.267-5.186.92-10.358 1.867-15.501 2.827-2.946.546-5.878 1.106-8.81 1.666q-6.923 1.32-13.791 2.68c-2.936.587-5.875 1.16-8.796 1.747-5.01 1.013-9.984 2.053-14.95 3.106-2.33.48-4.675.96-6.995 1.454-6.932 1.493-13.817 3-20.663 4.546-2.63.587-5.235 1.2-7.852 1.8-4.485 1.04-8.96 2.08-13.408 3.133-3.014.707-6.014 1.44-9.01 2.16-4.108 1-8.195 2-12.268 3.027-2.961.733-5.925 1.467-8.868 2.227-4.551 1.16-9.069 2.346-13.578 3.533-2.328.613-4.677 1.213-6.993 1.827a1722 1722 0 0 0-19.038 5.226c-2.858.8-5.684 1.613-8.524 2.427a1353 1353 0 0 0-20.49 5.986q-5.355 1.62-10.661 3.24c-2.99.92-5.985 1.84-8.95 2.773-3.974 1.24-7.907 2.507-11.838 3.774q-5.775 1.86-11.489 3.76a1487 1487 0 0 0-13.08 4.386c-2.963 1.013-5.891 2.04-8.829 3.067a964 964 0 0 0-9.535 3.36 1389 1389 0 0 0-18.172 6.64c-2.974 1.106-5.953 2.213-8.897 3.333-3.29 1.253-6.539 2.533-9.792 3.8q-7.108 2.78-14.095 5.6c-3.063 1.24-6.135 2.48-9.163 3.733-2.97 1.226-5.898 2.466-8.833 3.706-2.65 1.12-5.292 2.254-7.913 3.373-2.964 1.28-5.913 2.574-8.844 3.867-2.546 1.133-5.065 2.267-7.584 3.4-2.91 1.307-5.828 2.613-8.7 3.947-2.515 1.16-4.986 2.333-7.471 3.506a1072 1072 0 0 0-15.263 7.333c-2.27 1.12-4.554 2.227-6.8 3.36-2.867 1.427-5.695 2.88-8.523 4.333-2.176 1.12-4.347 2.24-6.499 3.36a924 924 0 0 0-8.371 4.427c-2.082 1.12-4.14 2.253-6.196 3.373-2.776 1.52-5.56 3.027-8.293 4.56-1.644.92-3.25 1.853-4.878 2.787a825 825 0 0 0-15.771 9.213c-1.764 1.066-3.543 2.12-5.284 3.186a598 598 0 0 0-7.881 4.894 558 558 0 0 0-5.288 3.346 736 736 0 0 0-7.692 4.973c-1.652 1.094-3.277 2.187-4.908 3.28-2.57 1.72-5.149 3.44-7.664 5.187-.297.2-.582.413-.878.613a629 629 0 0 0-17.144 12.333c-1.41 1.04-2.83 2.08-4.22 3.133a570 570 0 0 0-6.925 5.36 400 400 0 0 0-4.332 3.413 518 518 0 0 0-6.661 5.387c-1.332 1.093-2.63 2.2-3.941 3.307-7.56 6.36-14.78 12.8-21.648 19.32-1.165 1.106-2.344 2.212-3.488 3.319a433 433 0 0 0-9.214 9.24c-1.841 1.893-3.67 3.8-5.453 5.706-1.044 1.12-2.05 2.254-3.075 3.374-3.57 3.92-6.966 7.88-10.297 11.853-.68.8-1.435 1.6-2.101 2.413.084-.053.173-.107.259-.173 26.67-18.893 55.595-34.506 85.917-46.76 2.754-2.693 5.516-5.386 8.395-8.066" style="fill:#f8a51a;fill-opacity:1;fill-rule:nonzero;stroke:none;stroke-width:.13333"/><path d="M1430.676 53.359c316.766 55.932 562.24 178.022 655.637 322.458 26.653 41.226 40.946 84.265 40.946 128.104 0 71.425-37.88 139.063-105.477 199.435 90.504-65.852 142.263-142.13 142.263-223.448 0-41.626-13.613-81.918-38.973-120.17-95.357-143.797-357.55-258.74-694.396-306.38M145.584 265.408C92.146 317.752 62.51 375.324 62.51 435.789c0 240.687 468.335 435.803 1046.054 435.803 37.28 0 74.078-.827 110.344-2.414C595.15 862.258 94.78 656.864 94.78 404.497c0-48.88 18.843-95.971 53.643-140.224 1.818-2.32 3.649-4.626 5.557-6.933-2.879 2.68-5.641 5.373-8.395 8.067M1980.036 747.3c-38.292-51.452-92.851-90.61-157.596-109.024l-755.581-183.435 79.344 22.36 658.464 185.555c128.077 36.092 215.461 154.303 212.421 287.326l-8.253 360.844-1.626 71.039a782 782 0 0 0 22.892-13.96l9.8-432.67c1.573-69.611-20.6-135.29-59.865-188.035m-924.497-295.206 17.146 15.733-15.72-15.386z" style="fill:#fcca2e;fill-opacity:1;fill-rule:nonzero;stroke:none;stroke-width:.13333"/><path d="M2008.835 1310.927c-145.103 8.147-293.486-68.305-367.87-193.782-42.333-71.398-61.146-153.69-88.852-232.02a967 967 0 0 0-5.053-13.987c-49.665-133.796-400.857-393.937-400.857-393.937l-79.344-22.359-10.44-2.947.547.547 15.72 15.386 9.559 9.373 421.31 412.723.026 3.534 1 158.542 1.227 192.809.133.04 496.401 139.876c1.587-.906 3.213-1.773 4.787-2.706l.08-.04v-.013z" style="fill:#f6c455;fill-opacity:1;fill-rule:nonzero;stroke:none;stroke-width:.13333"/><path d="M1911.558 880.125c3.12-2.507 6.573-4.387 10.28-5.494-3.707 1.107-7.16 2.974-10.28 5.494m35.559 65.971c2.653 0 5.213-.426 7.693-1.16 5.28-7.586 8.493-17.533 8.493-28.466 0-23.746-15.12-43.012-33.76-43.012-2.653 0-5.212.427-7.692 1.173-5.267 7.587-8.494 17.533-8.494 28.453 0 23.76 15.12 43.012 33.76 43.012" style="fill:#f9b026;fill-opacity:1;fill-rule:nonzero;stroke:none;stroke-width:.13333"/><path d="M1929.544 959.483q1.82 0 3.6-.24c.346-.054.68-.147 1.013-.2.84-.147 1.68-.307 2.507-.534.346-.093.68-.226 1.026-.333a32 32 0 0 0 2.4-.853c.293-.134.587-.28.88-.414a29 29 0 0 0 2.413-1.226c.24-.147.467-.294.694-.427.84-.52 1.666-1.067 2.466-1.667l.48-.36a34 34 0 0 0 2.507-2.146c.093-.08.187-.173.28-.253.853-.84 1.693-1.707 2.48-2.64.04-.04.08-.094.12-.134q1.26-1.48 2.4-3.12c-2.48.734-5.04 1.16-7.693 1.16-18.64 0-33.76-19.253-33.76-43.012 0-10.92 3.227-20.866 8.494-28.453h-.013c-3.707 1.107-7.16 2.987-10.28 5.494-.04.026-.08.053-.12.093a35 35 0 0 0-4.24 4.08l-.32.36a40.6 40.6 0 0 0-3.627 4.88c-.027.04-.053.093-.08.133a46.5 46.5 0 0 0-2.946 5.533c-.053.12-.12.24-.174.36a48 48 0 0 0-2.093 5.853c-.107.347-.2.694-.307 1.04a53 53 0 0 0-1.28 6.16l-.12 1.054c-.28 2.226-.466 4.48-.466 6.8 0 23.759 15.12 43.012 33.76 43.012m-433.377-262.047c8.973 6.253 19.493 8.546 29.56 7.346 2.412-2.173 4.64-4.613 6.572-7.4 13.613-19.559 8.84-46.412-10.653-59.985-8.973-6.24-19.48-8.533-29.559-7.346-2.413 2.173-4.64 4.626-6.573 7.4-13.613 19.56-8.84 46.412 10.653 59.985m33.892 6.613" style="fill:#fbc348;fill-opacity:1;fill-rule:nonzero;stroke:none;stroke-width:.13333"/><path d="M1521.647 637.397c19.493 13.573 24.266 40.426 10.653 59.986-1.933 2.786-4.16 5.226-6.573 7.4h.013a43 43 0 0 0 4.32-.734.7.7 0 0 1 .147-.027 51 51 0 0 0 4.026-1.12c.134-.053.267-.093.387-.133a42 42 0 0 0 3.613-1.427c.214-.093.427-.173.627-.266a43 43 0 0 0 3.2-1.667c.267-.147.547-.293.827-.467a42 42 0 0 0 2.786-1.84c.333-.226.653-.44.973-.68.84-.64 1.654-1.333 2.454-2.026.346-.307.693-.573 1.026-.88a42 42 0 0 0 2.267-2.347c.293-.32.613-.6.893-.933q1.5-1.72 2.84-3.64c13.613-19.546 8.84-46.412-10.653-59.985-1.907-1.32-3.907-2.413-5.92-3.4-.32-.147-.64-.32-.96-.467-1.96-.88-3.973-1.6-6-2.173-.36-.107-.706-.187-1.066-.28-2.094-.533-4.214-.933-6.347-1.147-.133-.013-.266-.013-.413-.026a41.6 41.6 0 0 0-6.693-.067h-.16c-2.254.16-4.467.52-6.667 1.027-.173.04-.346.08-.506.12a43 43 0 0 0-6.467 2.12c-.053.026-.107.04-.16.066-4.333 1.84-8.4 4.4-12 7.64l-.027.027c10.08-1.187 20.587 1.107 29.56 7.346" style="fill:#f9b026;fill-opacity:1;fill-rule:nonzero;stroke:none;stroke-width:.13333"/><path d="M1610.992 800.18c4.546 3.173 9.866 4.267 14.973 3.64a21.5 21.5 0 0 0 3.266-3.667c6.867-9.866 4.453-23.426-5.386-30.279-4.507-3.133-9.8-4.293-14.867-3.706-1.226 1.106-2.386 2.32-3.373 3.746-6.866 9.867-4.453 23.426 5.387 30.266" style="fill:#fbc348;fill-opacity:1;fill-rule:nonzero;stroke:none;stroke-width:.13333"/><path d="M1623.845 769.874c9.84 6.853 12.253 20.413 5.386 30.28a21.5 21.5 0 0 1-3.266 3.666c-.013.027-.04.053-.053.08.146-.027.293-.08.453-.107 1.013-.146 2-.386 2.987-.666.426-.12.853-.214 1.266-.36.973-.347 1.907-.8 2.827-1.294.4-.2.8-.36 1.186-.586.92-.56 1.76-1.24 2.6-1.934.334-.266.68-.48.987-.773a21 21 0 0 0 3.027-3.467c6.88-9.866 4.466-23.426-5.374-30.279a21.2 21.2 0 0 0-3.6-2c-.413-.186-.84-.306-1.266-.466a21 21 0 0 0-2.52-.787c-.52-.12-1.04-.2-1.56-.28a23 23 0 0 0-2.307-.253c-.573-.027-1.133-.04-1.693-.027-.733.027-1.467.093-2.187.187-.586.08-1.16.146-1.733.266-.706.147-1.386.36-2.08.587-.56.173-1.12.32-1.666.547-.747.306-1.44.693-2.147 1.08-.813.44-1.6.933-2.347 1.48-.626.453-1.266.88-1.84 1.4h.053c5.067-.587 10.36.573 14.867 3.706" style="fill:#f9b026;fill-opacity:1;fill-rule:nonzero;stroke:none;stroke-width:.13333"/><path d="M1349.105 584.065c-3.773-2.626-8.2-3.6-12.426-3.106-1.04.92-2 1.946-2.827 3.12-5.733 8.253-3.72 19.586 4.493 25.306 3.813 2.653 8.267 3.56 12.533 3.053.987-.907 1.92-1.92 2.72-3.067 5.733-8.253 3.733-19.586-4.493-25.306" style="fill:#fbc348;fill-opacity:1;fill-rule:nonzero;stroke:none;stroke-width:.13333"/><path d="M1359.145 579.506c-.96-.667-1.974-1.2-3-1.667-.347-.16-.707-.253-1.067-.387-.693-.253-1.387-.493-2.093-.666-.44-.094-.88-.16-1.32-.227a16 16 0 0 0-1.92-.213c-.48-.027-.947-.027-1.427-.014-.613.014-1.213.067-1.813.147-.493.067-.973.12-1.453.227-.587.12-1.147.306-1.72.48-.48.146-.947.28-1.414.466-.613.254-1.186.574-1.76.894-.706.373-1.373.8-2.026 1.28-.507.36-1.027.706-1.507 1.133h.053c4.227-.493 8.653.48 12.427 3.106 8.226 5.72 10.226 17.053 4.493 25.306-.8 1.147-1.733 2.16-2.72 3.067-.027.013-.04.04-.053.053.133-.013.253-.066.387-.093.84-.107 1.653-.32 2.466-.547.36-.106.734-.173 1.094-.306.8-.28 1.56-.654 2.32-1.054.346-.173.693-.32 1.026-.52.76-.453 1.453-1.013 2.147-1.586.28-.24.586-.413.853-.667a18.3 18.3 0 0 0 2.52-2.906c5.746-8.24 3.733-19.573-4.493-25.306" style="fill:#f9b026;fill-opacity:1;fill-rule:nonzero;stroke:none;stroke-width:.13333"/><path d="M1801.814 757.088c-1.454 1.706-3.107 3.16-4.88 4.413 1.773-1.253 3.426-2.707 4.88-4.413m-24.466 9.506c1.92-1.306 3.693-2.84 5.253-4.653 11.146-13.04 7.666-34.333-7.787-47.532-7.08-6.067-15.453-9.32-23.52-9.867-1.972 1.32-3.826 2.854-5.426 4.72-11.16 13.04-7.68 34.333 7.787 47.532 7.133 6.107 15.573 9.294 23.693 9.8" style="fill:#fbc348;fill-opacity:1;fill-rule:nonzero;stroke:none;stroke-width:.13333"/><path d="M1782.6 761.94c-1.56 1.814-3.332 3.348-5.252 4.654-.04.027-.067.053-.107.08.253.027.493-.04.746-.027 1.587.08 3.134-.013 4.68-.16.707-.066 1.4-.08 2.094-.186 1.533-.24 3-.667 4.453-1.133.653-.2 1.32-.334 1.96-.587 1.453-.573 2.8-1.36 4.133-2.173.533-.32 1.107-.547 1.627-.907 1.773-1.253 3.426-2.707 4.88-4.413 11.16-13.053 7.666-34.333-7.787-47.532-1.8-1.547-3.706-2.88-5.653-4.067-.653-.4-1.333-.693-2-1.053-1.32-.707-2.64-1.387-3.987-1.934-.813-.333-1.626-.586-2.453-.866a37 37 0 0 0-3.693-1.054c-.893-.2-1.773-.36-2.667-.506-1.16-.174-2.32-.28-3.48-.347-.92-.04-1.826-.107-2.746-.08-1.12.027-2.213.16-3.307.293-.893.12-1.8.174-2.666.36-1.174.254-2.28.64-3.387 1.027-1.36.453-2.653 1-3.906 1.653-.974.494-1.96.934-2.854 1.547.027 0 .053 0 .067.013 8.067.547 16.44 3.8 23.52 9.867 15.452 13.2 18.932 34.492 7.786 47.532M1672.297 1062.2c1.707 0 3.347-.28 4.933-.733 3.48-4.987 5.667-11.467 5.667-18.667 0-15.546-9.893-28.145-22.106-28.145-1.747 0-3.427.32-5.067.813-3.426 4.96-5.52 11.44-5.52 18.573 0 15.56 9.893 28.159 22.093 28.159" style="fill:#f9b026;fill-opacity:1;fill-rule:nonzero;stroke:none;stroke-width:.13333"/><path d="M1643.018 1026.214a29 29 0 0 0-.947 1.787c-.427.867-.787 1.76-1.133 2.667-.24.626-.48 1.226-.68 1.866a37 37 0 0 0-.8 3.28c-.107.573-.254 1.107-.347 1.68a36.4 36.4 0 0 0-.413 5.307c0 15.56 9.893 28.159 22.092 28.159 1.6 0 3.147-.24 4.654-.64.426-.12.813-.347 1.226-.493 1.054-.374 2.107-.774 3.094-1.334.426-.24.8-.56 1.213-.826.92-.627 1.84-1.267 2.68-2.054.373-.333.693-.72 1.04-1.093.813-.84 1.586-1.707 2.293-2.68.107-.147.24-.253.347-.4-.04.013-.067.013-.107.027-1.587.453-3.227.733-4.933.733-12.2 0-22.093-12.6-22.093-28.159 0-7.133 2.093-13.613 5.52-18.573.013-.013.027-.04.04-.053-.747.213-1.44.573-2.147.88a22 22 0 0 0-2.733 1.467c-.707.466-1.427.906-2.093 1.453-.507.413-.96.92-1.44 1.387-.574.56-1.147 1.133-1.68 1.773-.44.507-.827 1.067-1.227 1.627a33 33 0 0 0-1.426 2.213" style="fill:#fbc348;fill-opacity:1;fill-rule:nonzero;stroke:none;stroke-width:.13333"/><path d="M1927.197 1213.503c7.84 0 15.44-1.267 22.76-3.453 15.6-22.453 25.132-51.879 25.132-84.225 0-70.305-44.719-127.303-99.904-127.303-7.84 0-15.44 1.28-22.76 3.453-15.599 22.453-25.132 51.892-25.132 84.225 0 70.304 44.719 127.303 99.904 127.303m-104.944-195.502c9.147-7.293 19.28-12.773 30.106-16.013-10.826 3.24-20.946 8.707-30.106 16.013" style="fill:#f9b026;fill-opacity:1;fill-rule:nonzero;stroke:none;stroke-width:.13333"/><path d="M1803.134 1037.787c-.614.8-1.187 1.654-1.774 2.48-1.36 1.907-2.72 3.8-3.986 5.8-.467.747-.88 1.533-1.334 2.28-2.12 3.507-4.08 7.16-5.906 10.946-.773 1.6-1.573 3.16-2.293 4.8-.68 1.574-1.294 3.2-1.92 4.814-.734 1.866-1.467 3.72-2.134 5.64-.546 1.586-1.04 3.2-1.546 4.813a146 146 0 0 0-1.774 6.213 132 132 0 0 0-1.173 4.786c-.52 2.254-.973 4.534-1.386 6.84-.28 1.533-.56 3.053-.8 4.6-.387 2.6-.68 5.253-.934 7.907-.133 1.32-.306 2.613-.413 3.946-.293 4-.48 8.067-.48 12.173 0 70.305 44.732 127.304 99.904 127.304 3.227 0 6.4-.24 9.533-.614.333-.04.667-.067 1-.106 2.893-.387 5.747-.974 8.573-1.667.574-.147 1.147-.267 1.707-.427a81 81 0 0 0 7.68-2.52c.786-.293 1.56-.6 2.333-.906a87 87 0 0 0 9.693-4.76c1.96-1.12 3.88-2.28 5.773-3.547 1.2-.8 2.36-1.666 3.534-2.533a88 88 0 0 0 3.106-2.4 100 100 0 0 0 5.76-4.96 112.62 112.62 0 0 0 8.32-8.627c.266-.32.546-.64.813-.96 2.4-2.826 4.693-5.812 6.867-8.932l.08-.12c-7.32 2.186-14.92 3.453-22.76 3.453-55.185 0-99.904-56.999-99.904-127.304 0-32.332 9.533-61.771 25.133-84.224-.027 0-.053.013-.067.013-10.827 3.24-20.96 8.72-30.106 16.013-.24.187-.48.36-.707.547-1.96 1.6-3.853 3.293-5.706 5.04-.52.493-1.027.973-1.534 1.466-1.706 1.667-3.36 3.4-4.973 5.2-.6.68-1.186 1.373-1.786 2.08-1.507 1.773-2.987 3.56-4.414 5.453" style="fill:#fbc348;fill-opacity:1;fill-rule:nonzero;stroke:none;stroke-width:.13333"/></svg>